<svg width="842" height="96" viewBox="0 0 842 96" fill="none" xmlns="http://www.w3.org/2000/svg">
<path fill-rule="evenodd" clip-rule="evenodd" d="M800.842 10.7732C801.01 10.4967 801.21 10.2774 801.43 10.1277C801.65 9.97804 801.887 9.901 802.125 9.901C802.363 9.901 802.599 9.97804 802.82 10.1277C803.04 10.2774 803.24 10.4967 803.408 10.7732L825.158 46.3982C825.327 46.674 825.461 47.0016 825.552 47.3622C825.644 47.7229 825.691 48.1096 825.691 48.5001C825.691 48.8905 825.644 49.2772 825.552 49.6379C825.461 49.9986 825.327 50.3262 825.158 50.6019L803.408 86.2269C803.068 86.7844 802.606 87.0976 802.125 87.0976C801.644 87.0976 801.182 86.7844 800.842 86.2269C800.501 85.6695 800.31 84.9134 800.31 84.1251C800.31 83.3367 800.501 82.5806 800.842 82.0232L821.312 48.5001L800.842 14.9769C800.673 14.7012 800.539 14.3736 800.448 14.0129C800.356 13.6522 800.309 13.2656 800.309 12.8751C800.309 12.4846 800.356 12.0979 800.448 11.7372C800.539 11.3766 800.673 11.049 800.842 10.7732Z" fill="#FDC500"/>
<path fill-rule="evenodd" clip-rule="evenodd" d="M39.739 9.77318C39.902 10.049 40.0313 10.3766 40.1195 10.7372C40.2077 11.0979 40.2531 11.4846 40.2531 11.8751C40.2531 12.2656 40.2077 12.6522 40.1195 13.0129C40.0313 13.3736 39.902 13.7012 39.739 13.9769L19.9745 47.5001L39.739 81.0232C40.0676 81.5806 40.2522 82.3367 40.2522 83.1251C40.2522 83.9134 40.0676 84.6695 39.739 85.2269C39.4104 85.7844 38.9647 86.0976 38.5 86.0976C38.0353 86.0976 37.5896 85.7844 37.261 85.2269L16.261 49.6019C16.098 49.3262 15.9687 48.9986 15.8805 48.6379C15.7923 48.2772 15.7469 47.8905 15.7469 47.5001C15.7469 47.1096 15.7923 46.7229 15.8805 46.3622C15.9687 46.0016 16.098 45.674 16.261 45.3982L37.261 9.77318C37.4236 9.49671 37.6167 9.27737 37.8293 9.1277C38.0419 8.97804 38.2698 8.901 38.5 8.901C38.7302 8.901 38.9581 8.97804 39.1707 9.1277C39.3833 9.27737 39.5765 9.49671 39.739 9.77318Z" fill="#FDC500"/>
</svg>
