<svg width="654" height="99" viewBox="0 0 654 99" fill="none" xmlns="http://www.w3.org/2000/svg">
<path fill-rule="evenodd" clip-rule="evenodd" d="M611.423 10.1848C611.597 9.89667 611.804 9.66809 612.031 9.51213C612.259 9.35616 612.503 9.27588 612.75 9.27588C612.997 9.27588 613.241 9.35616 613.469 9.51213C613.696 9.66809 613.903 9.89667 614.078 10.1848L636.578 47.3098C636.752 47.5972 636.891 47.9386 636.985 48.3144C637.08 48.6903 637.128 49.0932 637.128 49.5002C637.128 49.9071 637.08 50.31 636.985 50.6859C636.891 51.0617 636.752 51.4032 636.578 51.6905L614.078 88.8155C613.725 89.3965 613.248 89.7228 612.75 89.7228C612.252 89.7228 611.775 89.3965 611.423 88.8155C611.07 88.2346 610.873 87.4467 610.873 86.6252C610.873 85.8036 611.07 85.0157 611.423 84.4348L632.599 49.5002L611.423 14.5655C611.248 14.2782 611.109 13.9368 611.015 13.5609C610.92 13.185 610.872 12.7821 610.872 12.3752C610.872 11.9682 610.92 11.5653 611.015 11.1894C611.109 10.8136 611.248 10.4722 611.423 10.1848Z" fill="#FDC500"/>
<path fill-rule="evenodd" clip-rule="evenodd" d="M41.1583 10.876C41.327 11.1547 41.461 11.4857 41.5523 11.8502C41.6437 12.2147 41.6907 12.6054 41.6907 13C41.6907 13.3946 41.6437 13.7853 41.5523 14.1498C41.461 14.5143 41.327 14.8453 41.1583 15.124L20.6879 49L41.1583 82.876C41.4986 83.4393 41.6898 84.2033 41.6898 85C41.6898 85.7966 41.4986 86.5607 41.1583 87.124C40.8179 87.6873 40.3563 88.0038 39.875 88.0038C39.3937 88.0038 38.9321 87.6873 38.5918 87.124L16.8418 51.124C16.673 50.8453 16.539 50.5143 16.4477 50.1498C16.3563 49.7853 16.3093 49.3946 16.3093 49C16.3093 48.6054 16.3563 48.2147 16.4477 47.8502C16.539 47.4857 16.673 47.1547 16.8418 46.876L38.5918 10.876C38.7601 10.5966 38.9601 10.375 39.1803 10.2237C39.4005 10.0725 39.6366 9.99463 39.875 9.99463C40.1134 9.99463 40.3495 10.0725 40.5697 10.2237C40.7899 10.375 40.9899 10.5966 41.1583 10.876Z" fill="#FDC500"/>
</svg>
