<svg width="877" height="105" viewBox="0 0 877 105" fill="none" xmlns="http://www.w3.org/2000/svg">
<path fill-rule="evenodd" clip-rule="evenodd" d="M832.294 10.7456C832.477 10.4416 832.694 10.2004 832.933 10.0359C833.172 9.87132 833.429 9.78662 833.688 9.78662C833.947 9.78662 834.203 9.87132 834.442 10.0359C834.681 10.2004 834.899 10.4416 835.081 10.7456L858.706 49.9151C858.89 50.2183 859.035 50.5785 859.135 50.9751C859.234 51.3716 859.285 51.7968 859.285 52.2261C859.285 52.6554 859.234 53.0806 859.135 53.4771C859.035 53.8737 858.89 54.2339 858.706 54.5371L835.081 93.7066C834.712 94.3195 834.21 94.6639 833.688 94.6639C833.165 94.6639 832.663 94.3195 832.294 93.7066C831.924 93.0937 831.716 92.2624 831.716 91.3956C831.716 90.5288 831.924 89.6975 832.294 89.0846L854.529 52.2261L832.294 15.3676C832.11 15.0644 831.965 14.7042 831.866 14.3076C831.766 13.9111 831.715 13.4859 831.715 13.0566C831.715 12.6272 831.766 12.2021 831.866 11.8056C831.965 11.409 832.11 11.0488 832.294 10.7456Z" fill="#FDC500"/>
<path fill-rule="evenodd" clip-rule="evenodd" d="M43.2871 11.4043C43.4646 11.6979 43.6055 12.0467 43.7016 12.4307C43.7977 12.8146 43.8471 13.2263 43.8471 13.642C43.8471 14.0577 43.7977 14.4693 43.7016 14.8533C43.6055 15.2373 43.4646 15.586 43.2871 15.8796L21.7579 51.568L43.2871 87.2564C43.6451 87.8499 43.8461 88.6548 43.8461 89.4941C43.8461 90.3333 43.6451 91.1382 43.2871 91.7317C42.9292 92.3252 42.4437 92.6586 41.9375 92.6586C41.4313 92.6586 40.9458 92.3252 40.5879 91.7317L17.7129 53.8057C17.5353 53.5121 17.3945 53.1633 17.2984 52.7793C17.2023 52.3954 17.1528 51.9837 17.1528 51.568C17.1528 51.1523 17.2023 50.7407 17.2984 50.3567C17.3945 49.9727 17.5353 49.624 17.7129 49.3304L40.5879 11.4043C40.7649 11.11 40.9753 10.8765 41.2069 10.7172C41.4385 10.5578 41.6868 10.4758 41.9375 10.4758C42.1882 10.4758 42.4365 10.5578 42.6681 10.7172C42.8997 10.8765 43.11 11.11 43.2871 11.4043Z" fill="#FDC500"/>
</svg>
