<svg width="988" height="106" viewBox="0 0 988 106" fill="none" xmlns="http://www.w3.org/2000/svg">
<path fill-rule="evenodd" clip-rule="evenodd" d="M943.294 11.431C943.476 11.127 943.694 10.8858 943.933 10.7213C944.172 10.5567 944.429 10.472 944.687 10.472C944.946 10.472 945.203 10.5567 945.442 10.7213C945.681 10.8858 945.898 11.127 946.081 11.431L969.706 50.6005C969.89 50.9037 970.035 51.2639 970.134 51.6605C970.234 52.057 970.285 52.4822 970.285 52.9115C970.285 53.3409 970.234 53.766 970.134 54.1625C970.035 54.5591 969.89 54.9193 969.706 55.2225L946.081 94.392C945.712 95.0049 945.21 95.3493 944.687 95.3493C944.165 95.3493 943.663 95.0049 943.294 94.392C942.924 93.7791 942.716 92.9478 942.716 92.081C942.716 91.2142 942.924 90.3829 943.294 89.77L965.529 52.9115L943.294 16.053C943.11 15.7498 942.965 15.3896 942.866 14.993C942.766 14.5965 942.715 14.1713 942.715 13.742C942.715 13.3126 942.766 12.8875 942.866 12.491C942.965 12.0944 943.11 11.7342 943.294 11.431Z" fill="#FDC500"/>
<path fill-rule="evenodd" clip-rule="evenodd" d="M43.2871 11.0899C43.4646 11.3834 43.6055 11.7322 43.7016 12.1162C43.7977 12.5002 43.8471 12.9118 43.8471 13.3275C43.8471 13.7432 43.7977 14.1548 43.7016 14.5388C43.6055 14.9228 43.4646 15.2716 43.2871 15.5651L21.7579 51.2535L43.2871 86.9419C43.6451 87.5354 43.8461 88.3403 43.8461 89.1796C43.8461 90.0189 43.6451 90.8238 43.2871 91.4172C42.9292 92.0107 42.4437 92.3441 41.9375 92.3441C41.4313 92.3441 40.9458 92.0107 40.5879 91.4172L17.7129 53.4912C17.5353 53.1976 17.3945 52.8488 17.2984 52.4649C17.2023 52.0809 17.1528 51.6693 17.1528 51.2535C17.1528 50.8378 17.2023 50.4262 17.2984 50.0422C17.3945 49.6583 17.5353 49.3095 17.7129 49.0159L40.5879 11.0899C40.7649 10.7955 40.9753 10.562 41.2069 10.4027C41.4385 10.2434 41.6868 10.1613 41.9375 10.1613C42.1882 10.1613 42.4365 10.2434 42.6681 10.4027C42.8997 10.562 43.11 10.7955 43.2871 11.0899Z" fill="#FDC500"/>
</svg>
