<svg width="830" height="99" viewBox="0 0 830 99" fill="none" xmlns="http://www.w3.org/2000/svg">
<path fill-rule="evenodd" clip-rule="evenodd" d="M787.422 10.1845C787.597 9.89643 787.804 9.66785 788.031 9.51188C788.259 9.35592 788.503 9.27563 788.75 9.27563C788.997 9.27563 789.241 9.35592 789.469 9.51188C789.696 9.66785 789.903 9.89643 790.077 10.1845L812.577 47.3095C812.752 47.5969 812.891 47.9383 812.985 48.3142C813.08 48.69 813.128 49.093 813.128 49.4999C813.128 49.9068 813.08 50.3098 812.985 50.6856C812.891 51.0615 812.752 51.4029 812.577 51.6903L790.077 88.8153C789.725 89.3962 789.248 89.7226 788.75 89.7226C788.252 89.7226 787.775 89.3962 787.422 88.8153C787.07 88.2344 786.873 87.4465 786.873 86.6249C786.873 85.8034 787.07 85.0155 787.422 84.4345L808.599 49.4999L787.422 14.5653C787.248 14.2779 787.109 13.9365 787.015 13.5606C786.92 13.1848 786.872 12.7819 786.872 12.3749C786.872 11.968 786.92 11.565 787.015 11.1892C787.109 10.8133 787.248 10.4719 787.422 10.1845Z" fill="#FDC500"/>
<path fill-rule="evenodd" clip-rule="evenodd" d="M41.1582 10.876C41.327 11.1547 41.4609 11.4857 41.5523 11.8502C41.6436 12.2147 41.6907 12.6054 41.6907 13C41.6907 13.3946 41.6436 13.7853 41.5523 14.1498C41.4609 14.5143 41.327 14.8453 41.1582 15.124L20.6878 49L41.1582 82.876C41.4985 83.4393 41.6897 84.2033 41.6897 85C41.6897 85.7966 41.4985 86.5607 41.1582 87.124C40.8179 87.6873 40.3563 88.0038 39.8749 88.0038C39.3936 88.0038 38.932 87.6873 38.5917 87.124L16.8417 51.124C16.6729 50.8453 16.539 50.5143 16.4476 50.1498C16.3562 49.7853 16.3092 49.3946 16.3092 49C16.3092 48.6054 16.3562 48.2147 16.4476 47.8502C16.539 47.4857 16.6729 47.1547 16.8417 46.876L38.5917 10.876C38.7601 10.5966 38.9601 10.375 39.1803 10.2237C39.4005 10.0725 39.6365 9.99463 39.8749 9.99463C40.1133 9.99463 40.3494 10.0725 40.5696 10.2237C40.7898 10.375 40.9898 10.5966 41.1582 10.876Z" fill="#FDC500"/>
</svg>
