<svg width="59" height="59" viewBox="0 0 59 59" fill="none" xmlns="http://www.w3.org/2000/svg">
<path d="M50.2591 50.2793H41.5329V36.5862C41.5329 33.3211 41.4646 29.1248 36.9697 29.1248C32.4195 29.1248 31.7263 32.6665 31.7263 36.3447V50.2775H22.989V22.1225H31.3815V25.9629H31.494C32.6665 23.7449 35.5187 21.4126 39.774 21.4126C48.6255 21.4126 50.2683 27.2406 50.2683 34.8181V50.2775L50.2591 50.2793ZM13.1179 18.2747C10.3026 18.2747 8.04587 15.9977 8.04587 13.1935C8.04587 10.3984 10.3118 8.12515 13.1179 8.12515C15.924 8.12515 18.1972 10.3984 18.1972 13.1935C18.1972 15.9977 15.924 18.2747 13.1179 18.2747ZM17.4948 50.2793H8.7391V22.1243H17.4948V50.2793ZM54.6397 0H4.35111C1.94878 0 0 1.90085 0 4.2534V54.7466C0 57.0992 1.94878 59 4.35111 59H54.6305C57.0291 59 58.9982 57.0992 58.9982 54.7466V4.2534C58.9982 1.90085 57.0291 0 54.6305 0L54.6397 0Z" fill="white"/>
</svg>
