<svg width="751" height="97" viewBox="0 0 751 97" fill="none" xmlns="http://www.w3.org/2000/svg">
<path fill-rule="evenodd" clip-rule="evenodd" d="M710.551 9.97892C710.717 9.69663 710.913 9.47267 711.13 9.31985C711.346 9.16704 711.578 9.08838 711.813 9.08838C712.047 9.08838 712.279 9.16704 712.495 9.31985C712.712 9.47267 712.908 9.69663 713.074 9.97892L734.449 46.3539C734.615 46.6355 734.746 46.97 734.836 47.3383C734.926 47.7065 734.972 48.1013 734.972 48.5C734.972 48.8988 734.926 49.2936 734.836 49.6618C734.746 50.0301 734.615 50.3646 734.449 50.6462L713.074 87.0212C712.739 87.5904 712.286 87.9101 711.813 87.9101C711.339 87.9101 710.886 87.5904 710.551 87.0212C710.217 86.452 710.029 85.68 710.029 84.875C710.029 84.0701 710.217 83.2981 710.551 82.7289L730.669 48.5L710.551 14.2712C710.386 13.9896 710.254 13.6551 710.164 13.2868C710.074 12.9186 710.028 12.5238 710.028 12.125C710.028 11.7263 710.074 11.3315 710.164 10.9633C710.254 10.595 710.386 10.2605 710.551 9.97892Z" fill="#FDC500"/>
<path fill-rule="evenodd" clip-rule="evenodd" d="M39.739 9.97892C39.902 10.2605 40.0313 10.595 40.1195 10.9633C40.2077 11.3315 40.2531 11.7263 40.2531 12.125C40.2531 12.5238 40.2077 12.9186 40.1195 13.2868C40.0313 13.6551 39.902 13.9896 39.739 14.2712L19.9745 48.5L39.739 82.7289C40.0676 83.2981 40.2522 84.0701 40.2522 84.875C40.2522 85.68 40.0676 86.452 39.739 87.0212C39.4104 87.5904 38.9647 87.9101 38.5 87.9101C38.0353 87.9101 37.5896 87.5904 37.261 87.0212L16.261 50.6462C16.098 50.3646 15.9687 50.0301 15.8805 49.6618C15.7923 49.2936 15.7469 48.8988 15.7469 48.5C15.7469 48.1013 15.7923 47.7065 15.8805 47.3383C15.9687 46.97 16.098 46.6355 16.261 46.3539L37.261 9.97892C37.4236 9.69663 37.6167 9.47267 37.8293 9.31985C38.0419 9.16704 38.2698 9.08838 38.5 9.08838C38.7302 9.08838 38.9581 9.16704 39.1707 9.31985C39.3833 9.47267 39.5765 9.69663 39.739 9.97892Z" fill="#FDC500"/>
</svg>
