<svg width="862" height="106" viewBox="0 0 862 106" fill="none" xmlns="http://www.w3.org/2000/svg">
<path fill-rule="evenodd" clip-rule="evenodd" d="M817.294 11.3756C817.477 11.0717 817.694 10.8305 817.933 10.6659C818.172 10.5014 818.429 10.4167 818.688 10.4167C818.947 10.4167 819.203 10.5014 819.442 10.6659C819.681 10.8305 819.899 11.0717 820.081 11.3756L843.706 50.5452C843.89 50.8484 844.035 51.2086 844.135 51.6051C844.234 52.0017 844.285 52.4268 844.285 52.8562C844.285 53.2855 844.234 53.7106 844.135 54.1072C844.035 54.5038 843.89 54.864 843.706 55.1672L820.081 94.3367C819.712 94.9496 819.21 95.2939 818.688 95.2939C818.165 95.2939 817.663 94.9496 817.294 94.3367C816.924 93.7238 816.716 92.8925 816.716 92.0257C816.716 91.1589 816.924 90.3276 817.294 89.7147L839.529 52.8562L817.294 15.9977C817.11 15.6944 816.965 15.3342 816.866 14.9377C816.766 14.5411 816.715 14.116 816.715 13.6866C816.715 13.2573 816.766 12.8322 816.866 12.4356C816.965 12.0391 817.11 11.6789 817.294 11.3756Z" fill="#FDC500"/>
<path fill-rule="evenodd" clip-rule="evenodd" d="M43.2871 11.0345C43.4646 11.3281 43.6055 11.6768 43.7016 12.0608C43.7977 12.4448 43.8471 12.8564 43.8471 13.2721C43.8471 13.6878 43.7977 14.0995 43.7016 14.4834C43.6055 14.8674 43.4646 15.2162 43.2871 15.5097L21.7579 51.1982L43.2871 86.8866C43.6451 87.48 43.8461 88.2849 43.8461 89.1242C43.8461 89.9635 43.6451 90.7684 43.2871 91.3618C42.9292 91.9553 42.4437 92.2887 41.9375 92.2887C41.4313 92.2887 40.9458 91.9553 40.5879 91.3618L17.7129 53.4358C17.5353 53.1422 17.3945 52.7934 17.2984 52.4095C17.2023 52.0255 17.1528 51.6139 17.1528 51.1982C17.1528 50.7824 17.2023 50.3708 17.2984 49.9868C17.3945 49.6029 17.5353 49.2541 17.7129 48.9605L40.5879 11.0345C40.7649 10.7401 40.9753 10.5066 41.2069 10.3473C41.4385 10.188 41.6868 10.106 41.9375 10.106C42.1882 10.106 42.4365 10.188 42.6681 10.3473C42.8997 10.5066 43.11 10.7401 43.2871 11.0345Z" fill="#FDC500"/>
</svg>
