<svg width="61" height="59" viewBox="0 0 61 59" fill="none" xmlns="http://www.w3.org/2000/svg">
<path d="M30.245 0.00189029C13.5365 0.00189029 0 13.5498 0 30.2469C0 43.6171 8.6652 54.9496 20.6744 58.9476C22.1923 59.233 22.7405 58.2973 22.7405 57.4882C22.7405 56.7699 22.7235 54.8702 22.7121 52.3485C14.2946 54.1707 12.5214 48.2824 12.5214 48.2824C11.1434 44.7967 9.15479 43.861 9.15479 43.861C6.41762 41.9914 9.37218 42.0311 9.37218 42.0311C12.4042 42.2372 13.9997 45.1407 13.9997 45.1407C16.6971 49.7682 21.077 48.4299 22.8104 47.6511C23.0751 45.7021 23.8633 44.3619 24.7215 43.6152C18.0071 42.8572 10.9468 40.258 10.9468 28.6685C10.9468 25.3586 12.1188 22.663 14.0564 20.5458C13.7218 19.7878 12.6972 16.7066 14.3229 12.5403C14.3229 12.5403 16.854 11.7332 22.6403 15.6424C25.0618 14.9713 27.6326 14.6367 30.2016 14.6197C32.7724 14.6367 35.3413 14.9732 37.7628 15.6424C43.515 11.7332 46.0443 12.5403 46.0443 12.5403C47.6681 16.7066 46.6435 19.7859 46.3486 20.5458C48.2673 22.663 49.4393 25.3605 49.4393 28.6685C49.4393 40.2845 42.3695 42.8459 35.6475 43.585C36.6986 44.4904 37.6834 46.3524 37.6834 49.1784C37.6834 53.2237 37.6456 56.4826 37.6456 57.4675C37.6456 58.2538 38.1749 59.199 39.7325 58.8946C51.8305 54.9382 60.4863 43.5963 60.4863 30.245C60.4863 13.5479 46.9497 0 30.2413 0L30.245 0.00189029Z" fill="white"/>
</svg>
