<svg width="59" height="59" viewBox="0 0 59 59" fill="none" xmlns="http://www.w3.org/2000/svg">
<path d="M29.5 0C21.4805 0 20.4811 0.0387236 17.3426 0.17149C14.1913 0.326385 12.0596 0.815039 10.1788 1.54526C8.2389 2.30498 6.5867 3.31363 4.95478 4.95478C3.31179 6.5867 2.29391 8.2389 1.54526 10.1788C0.815039 12.0596 0.326385 14.1913 0.17149 17.3426C0.0295037 20.4829 0 21.4805 0 29.5C0 37.5195 0.0387236 38.5189 0.17149 41.6574C0.326385 44.7995 0.815039 46.9404 1.54526 48.8212C2.30498 50.7611 3.31363 52.4133 4.95478 54.0452C6.5867 55.6882 8.2389 56.7061 10.1788 57.4547C12.0596 58.1757 14.2005 58.6736 17.3426 58.8285C20.4829 58.9705 21.4805 59 29.5 59C37.5195 59 38.5189 58.9613 41.6574 58.8285C44.7995 58.6736 46.9404 58.1739 48.8212 57.4547C50.7611 56.695 52.4133 55.6864 54.0452 54.0452C55.6882 52.4133 56.7061 50.7703 57.4547 48.8212C58.1757 46.9404 58.6736 44.7995 58.8285 41.6574C58.9705 38.5171 59 37.5195 59 29.5C59 21.4805 58.9613 20.4811 58.8285 17.3426C58.6736 14.2005 58.1739 12.0486 57.4547 10.1788C56.695 8.2389 55.6864 6.5867 54.0452 4.95478C52.4133 3.31179 50.7703 2.29391 48.8212 1.54526C46.9404 0.815039 44.7995 0.326385 41.6574 0.17149C38.5171 0.0295037 37.5195 0 29.5 0ZM29.5 5.31066C37.3756 5.31066 38.3161 5.34939 41.4287 5.48215C44.2998 5.61676 45.8635 6.0962 46.9016 6.50187C48.2865 7.03847 49.2546 7.6728 50.3019 8.70912C51.329 9.73622 51.9634 10.7154 52.5 12.1002C52.9056 13.1384 53.3851 14.7021 53.5197 17.5731C53.6525 20.6858 53.6912 21.628 53.6912 29.5018C53.6912 37.3756 53.6525 38.3179 53.5086 41.4306C53.3537 44.3016 52.8743 45.8653 52.4705 46.9035C51.9117 48.2883 51.2885 49.2564 50.2595 50.3038C49.2214 51.3309 48.233 51.9652 46.8592 52.5018C45.834 52.9075 44.2482 53.3869 41.366 53.5215C38.2368 53.6543 37.3148 53.693 29.4189 53.693C21.5229 53.693 20.6028 53.6543 17.4699 53.5105C14.5988 53.3556 13.0148 52.8761 11.9767 52.4723C10.5752 51.9136 9.61452 51.2903 8.58557 50.2614C7.54741 49.2232 6.88727 48.2348 6.37833 46.8611C5.96528 45.8358 5.49322 44.25 5.34017 41.3679C5.23506 38.2755 5.18527 37.3166 5.18527 29.4576C5.18527 21.6022 5.23506 20.6415 5.34017 17.5104C5.49322 14.6283 5.96528 13.0462 6.37833 12.0172C6.88727 10.614 7.54926 9.65508 8.58557 8.61692C9.61267 7.58982 10.5752 6.92599 11.9767 6.40599C13.0148 6.00216 14.5601 5.52272 17.4422 5.37889C20.5714 5.26641 21.4934 5.22584 29.3783 5.22584L29.5 5.31066ZM29.5 14.3591C21.1265 14.3591 14.3554 21.1394 14.3554 29.5037C14.3554 37.8772 21.1357 44.6483 29.5 44.6483C37.8735 44.6483 44.6446 37.868 44.6446 29.5037C44.6446 21.1302 37.8643 14.3591 29.5 14.3591ZM29.5 39.3376C24.0639 39.3376 19.6661 34.9397 19.6661 29.5037C19.6661 24.0676 24.0639 19.6697 29.5 19.6697C34.9361 19.6697 39.3339 24.0676 39.3339 29.5037C39.3339 34.9397 34.9361 39.3376 29.5 39.3376ZM48.7954 13.7543C48.7954 15.7144 47.2004 17.2965 45.2494 17.2965C43.2893 17.2965 41.7072 15.7126 41.7072 13.7543C41.7072 11.8052 43.3004 10.2193 45.2494 10.2193C47.1985 10.2193 48.7954 11.8052 48.7954 13.7543Z" fill="white"/>
</svg>
