<svg width="63" height="74" viewBox="0 0 63 74" fill="none" xmlns="http://www.w3.org/2000/svg">
<path fill-rule="evenodd" clip-rule="evenodd" d="M18.2936 7.53074C18.4765 7.31793 18.6937 7.14908 18.9329 7.03388C19.1721 6.91868 19.4285 6.85938 19.6875 6.85938C19.9464 6.85938 20.2029 6.91868 20.442 7.03388C20.6812 7.14908 20.8985 7.31793 21.0814 7.53074L44.7064 34.9534C44.8897 35.1657 45.0352 35.4178 45.1344 35.6955C45.2337 35.9731 45.2847 36.2707 45.2847 36.5713C45.2847 36.8719 45.2337 37.1695 45.1344 37.4472C45.0352 37.7248 44.8897 37.977 44.7064 38.1893L21.0814 65.6119C20.7117 66.041 20.2103 66.2821 19.6875 66.2821C19.1647 66.2821 18.6633 66.041 18.2936 65.6119C17.9239 65.1828 17.7162 64.6008 17.7162 63.994C17.7162 63.3871 17.9239 62.8051 18.2936 62.376L40.5287 36.5713L18.2936 10.7666C18.1103 10.5543 17.9648 10.3022 17.8655 10.0245C17.7663 9.7469 17.7152 9.44927 17.7152 9.14868C17.7152 8.8481 17.7663 8.55046 17.8655 8.27283C17.9648 7.9952 18.1103 7.74302 18.2936 7.53074Z" fill="#FDC500"/>
</svg>
