<svg width="61" height="72" viewBox="0 0 61 72" fill="none" xmlns="http://www.w3.org/2000/svg">
<path fill-rule="evenodd" clip-rule="evenodd" d="M43.2871 7.48819C43.4646 7.69373 43.6055 7.9379 43.7016 8.20672C43.7977 8.47554 43.8471 8.76372 43.8471 9.05476C43.8471 9.34581 43.7977 9.63399 43.7016 9.90281C43.6055 10.1716 43.4646 10.4158 43.2871 10.6213L21.7579 35.6068L43.2871 60.5924C43.6451 61.0078 43.8461 61.5714 43.8461 62.1589C43.8461 62.7465 43.6451 63.31 43.2871 63.7255C42.9292 64.141 42.4437 64.3744 41.9375 64.3744C41.4313 64.3744 40.9458 64.141 40.5879 63.7255L17.7129 37.1734C17.5353 36.9679 17.3945 36.7237 17.2984 36.4549C17.2023 36.1861 17.1528 35.8979 17.1528 35.6068C17.1528 35.3158 17.2023 35.0276 17.2984 34.7588C17.3945 34.49 17.5353 34.2458 17.7129 34.0403L40.5879 7.48819C40.7649 7.28213 40.9753 7.11865 41.2069 7.0071C41.4385 6.89555 41.6868 6.83813 41.9375 6.83813C42.1882 6.83813 42.4365 6.89555 42.6681 7.0071C42.8997 7.11865 43.11 7.28213 43.2871 7.48819Z" fill="#FDC500"/>
</svg>
